{
    "asset" : {
        "generator" : "Khronos glTF Blender I/O v1.4.40",
        "version" : "2.0"
    },
    "scene" : 0,
    "scenes" : [
        {
            "name" : "Scene",
            "nodes" : [
                0,
                1
            ]
        }
    ],
    "nodes" : [
        {
            "mesh" : 0,
            "name" : "Cover",
            "translation" : [
                0.006463672500103712,
                0,
                -0.006463672034442425
            ]
        },
        {
            "mesh" : 1,
            "name" : "Pages",
            "translation" : [
                -0.006463672500103712,
                -0.11530603468418121,
                -0.006463672965764999
            ]
        }
    ],
    "materials" : [
        {
            "doubleSided" : true,
            "name" : "CoverMaterial",
            "normalTexture" : {
                "index" : 0,
                "scale" : 1.5,
                "texCoord" : 0
            },
            "pbrMetallicRoughness" : {
                "baseColorTexture" : {
                    "index" : 1,
                    "texCoord" : 0
                },
                "metallicFactor" : 0,
                "metallicRoughnessTexture" : {
                    "index" : 2,
                    "texCoord" : 0
                }
            }
        },
        {
            "doubleSided" : true,
            "name" : "PagesMaterial",
            "pbrMetallicRoughness" : {
                "baseColorTexture" : {
                    "index" : 3,
                    "texCoord" : 0
                },
                "metallicFactor" : 0,
                "roughnessFactor" : 0.798561155796051
            }
        }
    ],
    "meshes" : [
        {
            "name" : "Cover",
            "primitives" : [
                {
                    "attributes" : {
                        "POSITION" : 0,
                        "NORMAL" : 1,
                        "TEXCOORD_0" : 2
                    },
                    "indices" : 3,
                    "material" : 0
                }
            ]
        },
        {
            "name" : "Pages",
            "primitives" : [
                {
                    "attributes" : {
                        "POSITION" : 4,
                        "NORMAL" : 5,
                        "TEXCOORD_0" : 6
                    },
                    "indices" : 7,
                    "material" : 1
                }
            ]
        }
    ],
    "textures" : [
        {
            "sampler" : 0,
            "source" : 0
        },
        {
            "sampler" : 0,
            "source" : 1
        },
        {
            "sampler" : 0,
            "source" : 2
        },
        {
            "sampler" : 0,
            "source" : 3
        }
    ],
    "images" : [
        {
            "mimeType" : "image/jpeg",
            "name" : "normal",
            "uri" : "normal.jpg"
        },
        {
            "mimeType" : "image/jpeg",
            "name" : "color",
            "uri" : "color.jpg"
        },
        {
            "mimeType" : "image/png",
            "name" : "roughness",
            "uri" : "roughness.png"
        },
        {
            "mimeType" : "image/jpeg",
            "name" : "pages_color",
            "uri" : "pages_color.jpg"
        }
    ],
    "accessors" : [
        {
            "bufferView" : 0,
            "componentType" : 5126,
            "count" : 674,
            "max" : [
                0.8903440237045288,
                0.28121697902679443,
                1.2903544902801514
            ],
            "min" : [
                -1.0676723718643188,
                -0.4400176405906677,
                -1.2945107221603394
            ],
            "type" : "VEC3"
        },
        {
            "bufferView" : 1,
            "componentType" : 5126,
            "count" : 674,
            "type" : "VEC3"
        },
        {
            "bufferView" : 2,
            "componentType" : 5126,
            "count" : 674,
            "type" : "VEC2"
        },
        {
            "bufferView" : 3,
            "componentType" : 5123,
            "count" : 3372,
            "type" : "SCALAR"
        },
        {
            "bufferView" : 4,
            "componentType" : 5126,
            "count" : 346,
            "max" : [
                0.8307618498802185,
                0.16853073239326477,
                1.2523155212402344
            ],
            "min" : [
                -0.9927815794944763,
                -0.16901642084121704,
                -1.2524269819259644
            ],
            "type" : "VEC3"
        },
        {
            "bufferView" : 5,
            "componentType" : 5126,
            "count" : 346,
            "type" : "VEC3"
        },
        {
            "bufferView" : 6,
            "componentType" : 5126,
            "count" : 346,
            "type" : "VEC2"
        },
        {
            "bufferView" : 7,
            "componentType" : 5123,
            "count" : 1320,
            "type" : "SCALAR"
        }
    ],
    "bufferViews" : [
        {
            "buffer" : 0,
            "byteLength" : 8088,
            "byteOffset" : 0
        },
        {
            "buffer" : 0,
            "byteLength" : 8088,
            "byteOffset" : 8088
        },
        {
            "buffer" : 0,
            "byteLength" : 5392,
            "byteOffset" : 16176
        },
        {
            "buffer" : 0,
            "byteLength" : 6744,
            "byteOffset" : 21568
        },
        {
            "buffer" : 0,
            "byteLength" : 4152,
            "byteOffset" : 28312
        },
        {
            "buffer" : 0,
            "byteLength" : 4152,
            "byteOffset" : 32464
        },
        {
            "buffer" : 0,
            "byteLength" : 2768,
            "byteOffset" : 36616
        },
        {
            "buffer" : 0,
            "byteLength" : 2640,
            "byteOffset" : 39384
        }
    ],
    "samplers" : [
        {
            "magFilter" : 9729,
            "minFilter" : 9986
        }
    ],
    "buffers" : [
        {
            "byteLength" : 42024,
            "uri" : "Book.bin"
        }
    ]
}
